<svg width="140" height="140" viewBox="0 0 140 140" fill="none" xmlns="http://www.w3.org/2000/svg">
<path fill-rule="evenodd" clip-rule="evenodd" d="M20 0C8.95431 0 0 8.9543 0 20V120C0 131.046 8.9543 140 20 140H120C131.046 140 140 131.046 140 120V20C140 8.95431 131.046 0 120 0H20ZM60.4737 102.409C53.453 102.409 48.0308 100.998 44.207 98.1775C40.4459 95.294 38.5654 90.2479 38.5654 83.0391V66.6783H27V53.3265H39.3176L45.8055 38H57.1828V53.3265H76.423L82.9109 38H94.2883V53.3265H113V66.6783H94.2883V81.2526C94.2883 82.569 94.539 83.7913 95.0405 84.9197C95.6046 86.048 96.5763 86.9569 97.9553 87.6465C99.3971 88.2733 101.434 88.5867 104.067 88.5867C105.697 88.5867 107.327 88.3987 108.957 88.0226C110.649 87.6465 111.997 87.145 113 86.5181V99.682C111.245 100.56 108.925 101.218 106.042 101.657C103.158 102.158 100.337 102.409 97.5792 102.409C90.5585 102.409 85.1363 100.998 81.3125 98.1775C78.2998 95.8678 76.4937 92.1705 75.8942 87.0857V99.682C74.1391 100.56 71.8197 101.218 68.9362 101.657C66.0527 102.158 63.2319 102.409 60.4737 102.409ZM57.1828 81.2526V66.6783H75.6708V83.0391C75.6708 84.2742 75.726 85.4458 75.8364 86.5539C74.8397 87.1641 73.5113 87.6536 71.8511 88.0226C70.2213 88.3987 68.5914 88.5867 66.9616 88.5867C64.3289 88.5867 62.2916 88.2733 60.8499 87.6465C59.4708 86.9569 58.4992 86.048 57.935 84.9197C57.4335 83.7913 57.1828 82.569 57.1828 81.2526Z" fill="white"/>
</svg>
